<?xml version="1.0" standalone="no"?>
<!DOCTYPE svg PUBLIC "-//W3C//DTD SVG 20010904//EN"
 "http://www.w3.org/TR/2001/REC-SVG-20010904/DTD/svg10.dtd">
<svg version="1.0" xmlns="http://www.w3.org/2000/svg"
 width="500.000000pt" height="400.000000pt" viewBox="0 0 500.000000 400.000000"
 preserveAspectRatio="xMidYMid meet">

<g transform="translate(0.000000,400.000000) scale(0.100000,-0.100000)"
fill="#000000" stroke="none">
<path d="M2240 3445 c-259 -59 -481 -244 -580 -485 -72 -174 -79 -382 -21
-560 40 -125 89 -205 185 -307 160 -170 355 -253 593 -253 446 0 803 360 803
809 0 235 -82 426 -253 587 -93 89 -189 147 -309 186 -80 26 -111 31 -223 34
-90 3 -150 -1 -195 -11z m385 -146 c224 -74 390 -250 451 -479 21 -80 23 -244
5 -319 -66 -266 -256 -456 -522 -522 -75 -18 -239 -16 -317 5 -307 82 -514
351 -515 666 0 115 20 198 72 305 70 141 168 238 316 310 164 81 332 92 510
34z"/>
<path d="M2393 3092 c-30 -4 -63 -48 -63 -82 0 -49 69 -92 112 -69 51 27 63
78 28 121 -21 28 -42 36 -77 30z"/>
<path d="M2351 2784 c-20 -25 -21 -39 -21 -275 0 -246 0 -248 23 -275 31 -35
77 -37 112 -4 l25 23 0 252 c0 240 -1 254 -21 279 -16 20 -29 26 -59 26 -30 0
-43 -6 -59 -26z"/>
<path d="M3250 1604 c-30 -8 -88 -33 -129 -55 l-73 -39 -32 23 c-80 60 -163
81 -298 75 -117 -5 -183 -27 -261 -84 -44 -32 -55 -35 -131 -40 -289 -15 -503
-169 -546 -392 -24 -120 3 -241 75 -336 107 -144 277 -218 500 -219 187 -1
322 48 418 153 65 69 90 134 85 213 -3 48 1 58 47 129 30 46 61 81 78 89 38
16 91 71 112 115 10 21 21 63 24 95 6 46 15 68 50 112 43 56 118 120 179 151
17 9 32 19 32 21 0 10 -77 3 -130 -11z m-330 -33 c30 -11 68 -31 84 -44 l29
-24 -76 -72 c-126 -120 -165 -235 -102 -301 l29 -30 -33 -34 -33 -35 -48 38
c-26 21 -61 43 -79 50 -25 11 -31 19 -31 44 0 23 -11 41 -43 71 -50 49 -95 65
-197 73 -138 10 -273 -38 -361 -128 -73 -75 -95 -167 -64 -260 35 -103 134
-170 282 -191 188 -27 387 39 521 172 49 49 58 41 49 -40 -16 -136 -142 -249
-327 -296 -98 -25 -300 -15 -398 19 -239 83 -368 271 -335 486 35 227 233 382
507 398 l98 6 -16 -31 c-21 -41 -7 -42 16 -2 20 35 41 38 131 14 85 -22 150
-57 186 -101 17 -21 31 -33 31 -27 0 20 -74 84 -125 109 -28 13 -81 29 -118
36 l-67 12 20 22 c25 26 97 63 159 81 70 20 242 12 311 -15z m290 -69 l-95
-97 -28 48 c-16 27 -27 50 -25 51 30 22 94 55 142 72 109 41 109 33 6 -74z
m-130 -62 c11 -22 20 -45 20 -52 -1 -17 -180 -248 -203 -262 -15 -9 -22 -7
-38 13 -40 49 -18 143 54 235 38 48 126 118 138 110 5 -3 18 -23 29 -44z m26
-132 c-9 -56 -48 -121 -91 -154 -20 -15 -37 -25 -39 -23 -4 5 125 219 132 219
2 0 1 -19 -2 -42z m-581 -29 c48 -14 125 -87 125 -118 0 -20 -3 -22 -32 -14
-18 4 -89 8 -158 8 -115 0 -130 -2 -182 -27 -78 -36 -108 -70 -108 -120 0 -76
72 -113 204 -106 88 5 154 28 209 74 37 30 77 91 77 117 0 9 5 17 10 17 33 0
130 -71 130 -95 0 -17 -124 -120 -193 -161 -96 -56 -169 -77 -272 -77 -187 -1
-309 67 -335 184 -11 48 -10 63 4 106 37 110 151 197 296 224 55 10 171 4 225
-12z m65 -140 c28 -6 54 -18 57 -26 9 -23 -32 -98 -69 -127 -144 -109 -398
-97 -398 19 0 85 112 142 282 144 42 1 100 -4 128 -10z"/>
</g>
</svg>
