<?xml version="1.0" standalone="no"?>
<!DOCTYPE svg PUBLIC "-//W3C//DTD SVG 20010904//EN"
 "http://www.w3.org/TR/2001/REC-SVG-20010904/DTD/svg10.dtd">
<svg version="1.0" xmlns="http://www.w3.org/2000/svg"
 width="2000.000000pt" height="1500.000000pt" viewBox="0 0 2000.000000 1500.000000"
 preserveAspectRatio="xMidYMid meet">

<g transform="translate(0.000000,1500.000000) scale(0.100000,-0.100000)"
fill="#000000" stroke="none">
<path d="M0 7500 l0 -7500 10000 0 10000 0 0 7500 0 7500 -10000 0 -10000 0 0
-7500z m10130 4842 c742 -122 1392 -531 1812 -1142 239 -347 394 -745 454
-1165 28 -193 26 -578 -4 -770 -89 -571 -337 -1070 -737 -1484 -370 -384 -865
-657 -1385 -766 -230 -49 -563 -68 -796 -46 -658 62 -1239 339 -1700 812 -199
204 -336 393 -463 639 -142 274 -223 525 -278 855 -23 139 -26 608 -5 750 91
604 357 1139 772 1555 428 427 984 698 1594 775 165 21 571 14 736 -13z m2790
-6151 c-264 -115 -548 -356 -757 -645 l-92 -127 1 -122 c1 -176 -35 -293 -136
-446 -86 -129 -244 -262 -359 -302 -31 -11 -46 -27 -84 -89 -62 -100 -177
-267 -251 -363 l-60 -78 15 -52 c23 -84 20 -274 -6 -382 -27 -109 -102 -267
-170 -356 -223 -293 -617 -508 -1073 -584 -234 -39 -588 -37 -846 5 -805 130
-1377 618 -1498 1280 -24 130 -24 400 -1 530 145 788 920 1320 1926 1320 l174
0 81 69 c154 130 324 222 526 285 201 62 268 71 520 71 247 0 321 -10 505 -66
173 -53 317 -128 432 -226 34 -29 65 -53 67 -53 3 0 44 25 93 56 202 127 509
254 698 288 44 8 143 14 220 15 l140 0 -65 -28z"/>
<path d="M9585 11954 c-321 -24 -612 -101 -880 -234 -699 -345 -1154 -984
-1266 -1780 -16 -113 -16 -431 0 -550 48 -356 177 -707 363 -985 251 -376 609
-675 1012 -845 296 -125 576 -182 896 -182 380 0 704 77 1041 248 589 299
1021 840 1185 1487 108 425 81 933 -72 1344 -292 789 -998 1357 -1834 1477
-108 15 -356 27 -445 20z m252 -838 c245 -123 153 -499 -122 -499 -152 0 -265
112 -265 262 0 204 205 330 387 237z m-1 -934 c44 -22 93 -73 121 -125 17 -30
18 -89 21 -837 2 -564 0 -817 -8 -845 -17 -62 -70 -126 -131 -160 -45 -25 -65
-29 -124 -29 -113 0 -199 56 -246 159 -17 38 -19 88 -19 850 l0 810 24 50 c28
60 75 106 136 135 58 27 165 23 226 -8z"/>
<path d="M10620 6168 c-233 -24 -501 -119 -690 -244 -70 -46 -170 -131 -170
-143 0 -5 31 -11 70 -15 286 -26 586 -134 782 -282 124 -93 248 -254 195 -254
-7 0 -24 18 -36 41 -60 106 -216 235 -374 309 -163 77 -413 142 -597 156 l-85
6 -40 -54 c-22 -29 -51 -75 -65 -101 -25 -48 -50 -62 -50 -29 0 10 25 56 55
102 30 46 55 86 55 88 0 3 -87 2 -192 -1 -385 -13 -688 -82 -976 -222 -208
-101 -347 -200 -493 -352 -180 -187 -293 -389 -355 -637 -36 -140 -45 -424
-19 -577 75 -452 358 -823 806 -1058 304 -160 627 -237 1034 -248 394 -10 705
51 1011 197 432 207 694 562 694 939 0 80 -15 191 -25 191 -3 0 -44 -41 -92
-91 -281 -292 -600 -481 -978 -580 -156 -41 -285 -59 -470 -66 -470 -17 -847
99 -1086 337 -167 165 -241 349 -240 600 0 234 85 422 273 608 325 320 852
469 1367 385 354 -57 585 -242 625 -499 l11 -75 69 -31 c141 -62 260 -144 360
-247 55 -57 71 -69 82 -60 20 17 218 239 222 249 2 5 -14 18 -36 29 -151 77
-208 284 -136 497 80 241 316 529 617 754 l58 43 -28 29 c-74 77 -256 179
-416 233 -212 71 -494 99 -737 73z"/>
<path d="M12596 6163 c-179 -38 -439 -147 -636 -267 -52 -32 -97 -60 -99 -61
-2 -2 13 -23 32 -47 52 -63 114 -174 138 -245 l20 -62 101 127 c146 184 378
409 564 549 l29 22 -40 0 c-22 -1 -71 -7 -109 -16z"/>
<path d="M11725 5733 c-133 -102 -335 -306 -414 -418 -34 -49 -81 -125 -103
-169 -117 -232 -100 -463 40 -560 79 -54 72 -59 239 151 82 103 237 304 343
446 l194 259 -13 46 c-18 69 -65 167 -115 236 -68 96 -59 95 -171 9z"/>
<path d="M11959 5238 c-141 -226 -381 -639 -375 -645 8 -8 94 44 163 100 185
149 300 384 291 595 l-3 73 -76 -123z"/>
<path d="M9465 5154 c-204 -29 -373 -76 -522 -145 -252 -116 -479 -335 -568
-548 -37 -89 -55 -180 -55 -281 0 -388 277 -649 786 -741 99 -18 158 -22 349
-23 202 0 243 2 331 22 294 64 603 221 899 459 124 99 345 309 345 328 0 19
-158 166 -230 213 -62 41 -230 126 -235 120 -1 -2 -10 -38 -20 -82 -64 -294
-358 -533 -765 -622 -121 -27 -434 -27 -535 0 -230 60 -356 193 -343 360 15
177 189 331 478 424 180 57 251 67 515 67 258 0 308 -6 508 -57 65 -16 120
-28 122 -26 2 2 -2 33 -10 70 -46 219 -238 371 -560 443 -68 15 -420 29 -490
19z"/>
<path d="M9720 4670 c-196 -19 -412 -80 -545 -155 -36 -20 -94 -63 -129 -96
-79 -73 -110 -138 -110 -224 1 -190 184 -313 493 -331 332 -20 673 93 882 293
124 119 187 227 207 359 11 65 18 59 -133 100 -183 49 -469 72 -665 54z"/>
</g>
</svg>
